solid OpenSCAD_Model
  facet normal 0 0 -1
    outer loop
      vertex -0.114001 -8.01812 0
      vertex -0.506101 -8.01228 0
      vertex -0.348091 -6.95418 0
    endloop
  endfacet
  facet normal 0 0 -1
    outer loop
      vertex 2.79456 -7.39847 0
      vertex 1.85235 -6.63266 0
      vertex 2.54876 -6.37545 0
    endloop
  endfacet
  facet normal 0 0 -1
    outer loop
      vertex 2.54876 -6.37545 0
      vertex 3.21007 -6.04808 0
      vertex 3.46756 -7.08279 0
    endloop
  endfacet
  facet normal 0 0 -1
    outer loop
      vertex 3.74847 -6.93665 0
      vertex 3.83625 -5.65641 0
      vertex 4.53852 -6.41637 0
    endloop
  endfacet
  facet normal 0 0 -1
    outer loop
      vertex 4.94818 -4.67431 0
      vertex 6.30004 -4.6217 0
      vertex 5.49244 -5.59211 0
    endloop
  endfacet
  facet normal 0 0 -1
    outer loop
      vertex 5.42221 -4.08973 0
      vertex 5.83772 -3.45254 0
      vertex 6.30004 -4.6217 0
    endloop
  endfacet
  facet normal 0 0 -1
    outer loop
      vertex 6.51072 -1.79817 0
      vertex 7.6168 -1.60526 0
      vertex 7.34759 -2.57567 0
    endloop
  endfacet
  facet normal 0 0 -1
    outer loop
      vertex 4.995 4.57961 0
      vertex 5.36369 5.68447 0
      vertex 6.0601 4.93036 0
    endloop
  endfacet
  facet normal 0 0 -1
    outer loop
      vertex 6.70385 0.715528 0
      vertex 7.66361 1.37026 0
      vertex 7.77481 0.376471 0
    endloop
  endfacet
  facet normal -0 0 -1
    outer loop
      vertex 4.59704 6.36843 0
      vertex 3.92404 5.5734 0
      vertex 4.03523 6.78349 0
    endloop
  endfacet
  facet normal 0 0 -1
    outer loop
      vertex 5.9138 3.276 0
      vertex 6.48146 4.38085 0
      vertex 6.73896 3.9658 0
    endloop
  endfacet
  facet normal 0 0 -1
    outer loop
      vertex 5.42806 4.0418 0
      vertex 6.48146 4.38085 0
      vertex 5.9138 3.276 0
    endloop
  endfacet
  facet normal 0 0 -1
    outer loop
      vertex 4.59704 6.36843 0
      vertex 5.36369 5.68447 0
      vertex 4.62045 4.97128 0
    endloop
  endfacet
  facet normal 0 0 -1
    outer loop
      vertex 4.62045 4.97128 0
      vertex 5.36369 5.68447 0
      vertex 4.995 4.57961 0
    endloop
  endfacet
  facet normal 0 -0 -1
    outer loop
      vertex 6.38783 -2.20738 0
      vertex 7.34759 -2.57567 0
      vertex 6.17715 -2.76273 0
    endloop
  endfacet
  facet normal 0 0 -1
    outer loop
      vertex 4.41563 -5.19459 0
      vertex 4.94818 -4.67431 0
      vertex 5.49244 -5.59211 0
    endloop
  endfacet
  facet normal 0 0 -1
    outer loop
      vertex 1.91672 6.61396 0
      vertex 1.68849 7.76558 0
      vertex 2.43757 7.5376 0
    endloop
  endfacet
  facet normal 0 0 -1
    outer loop
      vertex 1.91672 6.61396 0
      vertex 3.17495 7.23946 0
      vertex 2.97012 6.18721 0
    endloop
  endfacet
  facet normal 0 0 -1
    outer loop
      vertex -0.201785 7.98188 0
      vertex 0.845764 7.93511 0
      vertex 0.184462 6.95301 0
    endloop
  endfacet
  facet normal 0 0 -1
    outer loop
      vertex -1.17911 7.95849 0
      vertex -0.833826 7.97603 0
      vertex -0.564623 6.96471 0
    endloop
  endfacet
  facet normal 0 0 -1
    outer loop
      vertex -1.29615 6.88286 0
      vertex -1.17911 7.95849 0
      vertex -0.564623 6.96471 0
    endloop
  endfacet
  facet normal 0 0 -1
    outer loop
      vertex -2.81773 6.45027 0
      vertex -2.80603 7.56682 0
      vertex -1.94575 6.73672 0
    endloop
  endfacet
  facet normal -0 0 -1
    outer loop
      vertex -3.64875 6.07614 0
      vertex -4.19301 5.75462 0
      vertex -4.1696 6.96471 0
    endloop
  endfacet
  facet normal 0 0 -1
    outer loop
      vertex -2.80603 7.56682 0
      vertex -2.81773 6.45027 0
      vertex -4.1696 6.96471 0
    endloop
  endfacet
  facet normal -0 0 -1
    outer loop
      vertex -6.96111 1.90223 0
      vertex -7.01963 1.68593 0
      vertex -7.86821 2.40497 0
    endloop
  endfacet
  facet normal 0 0 -1
    outer loop
      vertex -7.06645 1.44626 0
      vertex -7.11327 1.07797 0
      vertex -8.17838 0.961052 0
    endloop
  endfacet
  facet normal -0 0 -1
    outer loop
      vertex -4.77238 5.28111 0
      vertex -5.24056 4.82514 0
      vertex -5.37516 6.1346 0
    endloop
  endfacet
  facet normal 0 -0 -1
    outer loop
      vertex -7.14838 -0.219803 0
      vertex -7.11912 -0.932992 0
      vertex -8.22519 -0.506248 0
    endloop
  endfacet
  facet normal 0 -0 -1
    outer loop
      vertex -6.49879 -3.03164 0
      vertex -6.2764 -3.47008 0
      vertex -7.50537 -3.34147 0
    endloop
  endfacet
  facet normal 0 0 -1
    outer loop
      vertex -1.94575 6.73672 0
      vertex -1.67069 7.87665 0
      vertex -1.29615 6.88286 0
    endloop
  endfacet
  facet normal 0 0 -1
    outer loop
      vertex -4.29835 -5.65057 0
      vertex -4.70215 -6.63266 0
      vertex -5.4922 -6.03054 0
    endloop
  endfacet
  facet normal -0 0 -1
    outer loop
      vertex -3.14546 -6.31699 0
      vertex -3.57267 -7.26986 0
      vertex -3.57852 -6.10069 0
    endloop
  endfacet
  facet normal 0 -0 -1
    outer loop
      vertex -3.14546 -6.31699 0
      vertex -2.59535 -6.53913 0
      vertex -3.57267 -7.26986 0
    endloop
  endfacet
  facet normal 0 0 -1
    outer loop
      vertex -2.59535 -6.53913 0
      vertex -1.85211 -6.76127 0
      vertex -2.32614 -7.71414 0
    endloop
  endfacet
  facet normal 0 0 -1
    outer loop
      vertex -1.85211 -6.76127 0
      vertex -1.09718 -6.90157 0
      vertex -1.302 -7.93043 0
    endloop
  endfacet
  facet normal 0 0 -1
    outer loop
      vertex -1.302 -7.93043 0
      vertex -1.09718 -6.90157 0
      vertex -0.506101 -8.01228 0
    endloop
  endfacet
  facet normal 0 0 -1
    outer loop
      vertex -0.506101 -8.01228 0
      vertex -1.09718 -6.90157 0
      vertex -0.348091 -6.95418 0
    endloop
  endfacet
  facet normal 0 0 -1
    outer loop
      vertex 0.400995 -6.92495 0
      vertex 1.13838 -6.81388 0
      vertex 0.99207 -7.89536 0
    endloop
  endfacet
  facet normal -0 0 -1
    outer loop
      vertex 0.289802 -7.99474 0
      vertex -0.114001 -8.01812 0
      vertex 0.400995 -6.92495 0
    endloop
  endfacet
  facet normal 0 0 -1
    outer loop
      vertex 1.13838 -6.81388 0
      vertex 1.85235 -6.63266 0
      vertex 1.54803 -7.79598 0
    endloop
  endfacet
  facet normal 0 0 -1
    outer loop
      vertex 2.97012 6.18721 0
      vertex 3.17495 7.23946 0
      vertex 3.67239 6.99393 0
    endloop
  endfacet
  facet normal 0 -0 -1
    outer loop
      vertex -1.85211 -6.76127 0
      vertex -1.302 -7.93043 0
      vertex -2.32614 -7.71414 0
    endloop
  endfacet
  facet normal 0 0 -1
    outer loop
      vertex 4.94818 -4.67431 0
      vertex 5.42221 -4.08973 0
      vertex 6.30004 -4.6217 0
    endloop
  endfacet
  facet normal 0 -0 -1
    outer loop
      vertex -2.59535 -6.53913 0
      vertex -2.32614 -7.71414 0
      vertex -3.57267 -7.26986 0
    endloop
  endfacet
  facet normal 0 0 -1
    outer loop
      vertex -3.57267 -7.26986 0
      vertex -4.70215 -6.63266 0
      vertex -3.57852 -6.10069 0
    endloop
  endfacet
  facet normal -0 0 -1
    outer loop
      vertex -3.57852 -6.10069 0
      vertex -4.70215 -6.63266 0
      vertex -4.29835 -5.65057 0
    endloop
  endfacet
  facet normal 0 0 -1
    outer loop
      vertex -5.4922 -6.03054 0
      vertex -5.12351 -4.97245 0
      vertex -4.29835 -5.65057 0
    endloop
  endfacet
  facet normal -0 0 -1
    outer loop
      vertex -5.12351 -4.97245 0
      vertex -6.0072 -5.5395 0
      vertex -5.81993 -4.17157 0
    endloop
  endfacet
  facet normal 0 0 -1
    outer loop
      vertex -5.4922 -6.03054 0
      vertex -6.0072 -5.5395 0
      vertex -5.12351 -4.97245 0
    endloop
  endfacet
  facet normal -0 0 -1
    outer loop
      vertex -5.81993 -4.17157 0
      vertex -6.74458 -4.63924 0
      vertex -6.2764 -3.47008 0
    endloop
  endfacet
  facet normal 0 0 -1
    outer loop
      vertex -6.0072 -5.5395 0
      vertex -6.74458 -4.63924 0
      vertex -5.81993 -4.17157 0
    endloop
  endfacet
  facet normal -0 0 -1
    outer loop
      vertex -6.2764 -3.47008 0
      vertex -6.74458 -4.63924 0
      vertex -7.50537 -3.34147 0
    endloop
  endfacet
  facet normal 0 0 -1
    outer loop
      vertex -7.50537 -3.34147 0
      vertex -6.77384 -2.43537 0
      vertex -6.49879 -3.03164 0
    endloop
  endfacet
  facet normal 0 0 -1
    outer loop
      vertex -7.50537 -3.34147 0
      vertex -7.99696 -1.95016 0
      vertex -6.77384 -2.43537 0
    endloop
  endfacet
  facet normal -0 0 -1
    outer loop
      vertex -7.00208 -1.71049 0
      vertex -7.99696 -1.95016 0
      vertex -7.11912 -0.932992 0
    endloop
  endfacet
  facet normal 0 0 -1
    outer loop
      vertex -6.77384 -2.43537 0
      vertex -7.99696 -1.95016 0
      vertex -7.00208 -1.71049 0
    endloop
  endfacet
  facet normal -0 0 -1
    outer loop
      vertex -7.11912 -0.932992 0
      vertex -7.99696 -1.95016 0
      vertex -8.22519 -0.506248 0
    endloop
  endfacet
  facet normal 0 0 -1
    outer loop
      vertex -8.22519 -0.506248 0
      vertex -7.13668 0.610303 0
      vertex -7.14838 -0.219803 0
    endloop
  endfacet
  facet normal 0 0 -1
    outer loop
      vertex -7.13668 0.610303 0
      vertex -8.17838 0.961052 0
      vertex -7.11327 1.07797 0
    endloop
  endfacet
  facet normal 0 0 -1
    outer loop
      vertex -8.22519 -0.506248 0
      vertex -8.17838 0.961052 0
      vertex -7.13668 0.610303 0
    endloop
  endfacet
  facet normal 0 -0 -1
    outer loop
      vertex -7.86821 2.40497 0
      vertex -7.06645 1.44626 0
      vertex -8.17838 0.961052 0
    endloop
  endfacet
  facet normal 0 0 -1
    outer loop
      vertex -7.86821 2.40497 0
      vertex -7.01963 1.68593 0
      vertex -7.06645 1.44626 0
    endloop
  endfacet
  facet normal -0 0 -1
    outer loop
      vertex -6.82066 2.30559 0
      vertex -6.96111 1.90223 0
      vertex -7.86821 2.40497 0
    endloop
  endfacet
  facet normal 0 0 -1
    outer loop
      vertex -6.57486 2.88433 0
      vertex -6.82066 2.30559 0
      vertex -7.86821 2.40497 0
    endloop
  endfacet
  facet normal 0 -0 -1
    outer loop
      vertex -7.28298 3.78458 0
      vertex -6.57486 2.88433 0
      vertex -7.86821 2.40497 0
    endloop
  endfacet
  facet normal 0 0 -1
    outer loop
      vertex -7.28298 3.78458 0
      vertex -6.09498 3.79043 0
      vertex -6.29981 3.43383 0
    endloop
  endfacet
  facet normal 0 0 -1
    outer loop
      vertex -7.28298 3.78458 0
      vertex -6.29981 3.43383 0
      vertex -6.57486 2.88433 0
    endloop
  endfacet
  facet normal 0 -0 -1
    outer loop
      vertex -6.66265 4.77252 0
      vertex -6.09498 3.79043 0
      vertex -7.28298 3.78458 0
    endloop
  endfacet
  facet normal 0 0 -1
    outer loop
      vertex -6.66265 4.77252 0
      vertex -5.94282 4.01257 0
      vertex -6.09498 3.79043 0
    endloop
  endfacet
  facet normal 0 0 -1
    outer loop
      vertex -6.66265 4.77252 0
      vertex -6.18277 5.35711 0
      vertex -5.67947 4.33993 0
    endloop
  endfacet
  facet normal 0 0 -1
    outer loop
      vertex -6.66265 4.77252 0
      vertex -5.67947 4.33993 0
      vertex -5.94282 4.01257 0
    endloop
  endfacet
  facet normal 0 0 -1
    outer loop
      vertex -5.67947 4.33993 0
      vertex -6.18277 5.35711 0
      vertex -5.24056 4.82514 0
    endloop
  endfacet
  facet normal 0 0 -1
    outer loop
      vertex -5.24056 4.82514 0
      vertex -6.18277 5.35711 0
      vertex -5.37516 6.1346 0
    endloop
  endfacet
  facet normal 0 0 -1
    outer loop
      vertex -4.77238 5.28111 0
      vertex -5.37516 6.1346 0
      vertex -4.47391 5.55002 0
    endloop
  endfacet
  facet normal 0 0 -1
    outer loop
      vertex -4.47391 5.55002 0
      vertex -5.37516 6.1346 0
      vertex -4.19301 5.75462 0
    endloop
  endfacet
  facet normal 0 0 -1
    outer loop
      vertex -4.19301 5.75462 0
      vertex -5.37516 6.1346 0
      vertex -4.1696 6.96471 0
    endloop
  endfacet
  facet normal 0 0 -1
    outer loop
      vertex -3.64875 6.07614 0
      vertex -4.1696 6.96471 0
      vertex -2.81773 6.45027 0
    endloop
  endfacet
  facet normal 0 0 -1
    outer loop
      vertex -2.80603 7.56682 0
      vertex -1.67069 7.87665 0
      vertex -1.94575 6.73672 0
    endloop
  endfacet
  facet normal 0 0 -1
    outer loop
      vertex -1.67069 7.87665 0
      vertex -1.17911 7.95849 0
      vertex -1.29615 6.88286 0
    endloop
  endfacet
  facet normal 0 -0 -1
    outer loop
      vertex -0.201785 7.98188 0
      vertex -0.19008 6.98224 0
      vertex -0.564623 6.96471 0
    endloop
  endfacet
  facet normal 0 0 -1
    outer loop
      vertex -0.201785 7.98188 0
      vertex -0.564623 6.96471 0
      vertex -0.833826 7.97603 0
    endloop
  endfacet
  facet normal 0 0 -1
    outer loop
      vertex -0.201785 7.98188 0
      vertex 0.184462 6.95301 0
      vertex -0.19008 6.98224 0
    endloop
  endfacet
  facet normal -0 0 -1
    outer loop
      vertex 1.15593 7.88834 0
      vertex 1.01548 6.83025 0
      vertex 0.845764 7.93511 0
    endloop
  endfacet
  facet normal 0 0 -1
    outer loop
      vertex 1.01548 6.83025 0
      vertex 0.184462 6.95301 0
      vertex 0.845764 7.93511 0
    endloop
  endfacet
  facet normal 0 -0 -1
    outer loop
      vertex 1.68849 7.76558 0
      vertex 1.91672 6.61396 0
      vertex 1.01548 6.83025 0
    endloop
  endfacet
  facet normal -0 0 -1
    outer loop
      vertex 1.68849 7.76558 0
      vertex 1.01548 6.83025 0
      vertex 1.15593 7.88834 0
    endloop
  endfacet
  facet normal 0 -0 -1
    outer loop
      vertex 2.43757 7.5376 0
      vertex 3.17495 7.23946 0
      vertex 1.91672 6.61396 0
    endloop
  endfacet
  facet normal -0 0 -1
    outer loop
      vertex 4.03523 6.78349 0
      vertex 2.97012 6.18721 0
      vertex 3.67239 6.99393 0
    endloop
  endfacet
  facet normal 0 0 -1
    outer loop
      vertex 4.03523 6.78349 0
      vertex 3.92404 5.5734 0
      vertex 2.97012 6.18721 0
    endloop
  endfacet
  facet normal 0 -0 -1
    outer loop
      vertex 4.59704 6.36843 0
      vertex 4.62045 4.97128 0
      vertex 3.92404 5.5734 0
    endloop
  endfacet
  facet normal 0 0 -1
    outer loop
      vertex 5.42806 4.0418 0
      vertex 4.995 4.57961 0
      vertex 6.0601 4.93036 0
    endloop
  endfacet
  facet normal 0 -0 -1
    outer loop
      vertex 6.0601 4.93036 0
      vertex 6.48146 4.38085 0
      vertex 5.42806 4.0418 0
    endloop
  endfacet
  facet normal -0 0 -1
    outer loop
      vertex 7.07839 3.28184 0
      vertex 5.9138 3.276 0
      vertex 6.73896 3.9658 0
    endloop
  endfacet
  facet normal 0 -0 -1
    outer loop
      vertex 7.07839 3.28184 0
      vertex 7.43538 2.34066 0
      vertex 6.28834 2.45758 0
    endloop
  endfacet
  facet normal 0 0 -1
    outer loop
      vertex 7.07839 3.28184 0
      vertex 6.28834 2.45758 0
      vertex 5.9138 3.276 0
    endloop
  endfacet
  facet normal 0 -0 -1
    outer loop
      vertex 7.43538 2.34066 0
      vertex 7.66361 1.37026 0
      vertex 6.55169 1.59825 0
    endloop
  endfacet
  facet normal -0 0 -1
    outer loop
      vertex 7.43538 2.34066 0
      vertex 6.55169 1.59825 0
      vertex 6.28834 2.45758 0
    endloop
  endfacet
  facet normal 0 0 -1
    outer loop
      vertex 6.55169 1.59825 0
      vertex 7.66361 1.37026 0
      vertex 6.70385 0.715528 0
    endloop
  endfacet
  facet normal 0 0 -1
    outer loop
      vertex 7.77481 0.376471 0
      vertex 7.75725 -0.617318 0
      vertex 6.73896 -0.190574 0
    endloop
  endfacet
  facet normal -0 0 -1
    outer loop
      vertex 7.77481 0.376471 0
      vertex 6.73896 -0.190574 0
      vertex 6.70385 0.715528 0
    endloop
  endfacet
  facet normal 0 0 -1
    outer loop
      vertex 7.75725 -0.617318 0
      vertex 7.6168 -1.60526 0
      vertex 6.65118 -1.10837 0
    endloop
  endfacet
  facet normal -0 0 -1
    outer loop
      vertex 7.75725 -0.617318 0
      vertex 6.65118 -1.10837 0
      vertex 6.73896 -0.190574 0
    endloop
  endfacet
  facet normal 0 -0 -1
    outer loop
      vertex 6.65118 -1.10837 0
      vertex 7.6168 -1.60526 0
      vertex 6.51072 -1.79817 0
    endloop
  endfacet
  facet normal 0 -0 -1
    outer loop
      vertex 6.51072 -1.79817 0
      vertex 7.34759 -2.57567 0
      vertex 6.38783 -2.20738 0
    endloop
  endfacet
  facet normal -0 0 -1
    outer loop
      vertex 7.06669 -3.28886 0
      vertex 6.81504 -3.80329 0
      vertex 6.17715 -2.76273 0
    endloop
  endfacet
  facet normal 0 0 -1
    outer loop
      vertex 7.06669 -3.28886 0
      vertex 6.17715 -2.76273 0
      vertex 7.34759 -2.57567 0
    endloop
  endfacet
  facet normal 0 -0 -1
    outer loop
      vertex 6.17715 -2.76273 0
      vertex 6.81504 -3.80329 0
      vertex 5.83772 -3.45254 0
    endloop
  endfacet
  facet normal 0 0 -1
    outer loop
      vertex 5.83772 -3.45254 0
      vertex 6.81504 -3.80329 0
      vertex 6.30004 -4.6217 0
    endloop
  endfacet
  facet normal 0 0 -1
    outer loop
      vertex 3.83625 -5.65641 0
      vertex 4.41563 -5.19459 0
      vertex 4.53852 -6.41637 0
    endloop
  endfacet
  facet normal 0 0 -1
    outer loop
      vertex 4.53852 -6.41637 0
      vertex 4.41563 -5.19459 0
      vertex 5.49244 -5.59211 0
    endloop
  endfacet
  facet normal 0 0 -1
    outer loop
      vertex 3.21007 -6.04808 0
      vertex 3.83625 -5.65641 0
      vertex 3.74847 -6.93665 0
    endloop
  endfacet
  facet normal 0 0 -1
    outer loop
      vertex 3.46756 -7.08279 0
      vertex 3.21007 -6.04808 0
      vertex 3.74847 -6.93665 0
    endloop
  endfacet
  facet normal 0 0 -1
    outer loop
      vertex 2.79456 -7.39847 0
      vertex 2.54876 -6.37545 0
      vertex 3.46756 -7.08279 0
    endloop
  endfacet
  facet normal 0 0 -1
    outer loop
      vertex 2.18593 -7.62645 0
      vertex 1.85235 -6.63266 0
      vertex 2.79456 -7.39847 0
    endloop
  endfacet
  facet normal -0 0 -1
    outer loop
      vertex 2.18593 -7.62645 0
      vertex 1.54803 -7.79598 0
      vertex 1.85235 -6.63266 0
    endloop
  endfacet
  facet normal -0 0 -1
    outer loop
      vertex 1.54803 -7.79598 0
      vertex 0.99207 -7.89536 0
      vertex 1.13838 -6.81388 0
    endloop
  endfacet
  facet normal -0 0 -1
    outer loop
      vertex 0.99207 -7.89536 0
      vertex 0.289802 -7.99474 0
      vertex 0.400995 -6.92495 0
    endloop
  endfacet
  facet normal 0 0 -1
    outer loop
      vertex 0.400995 -6.92495 0
      vertex -0.114001 -8.01812 0
      vertex -0.348091 -6.95418 0
    endloop
  endfacet
  facet normal 0 0 1
    outer loop
      vertex -0.348091 -6.95418 1
      vertex -0.506101 -8.01228 1
      vertex -0.114001 -8.01812 1
    endloop
  endfacet
  facet normal 0 0 1
    outer loop
      vertex 2.54876 -6.37545 1
      vertex 1.85235 -6.63266 1
      vertex 2.79456 -7.39847 1
    endloop
  endfacet
  facet normal 0 0 1
    outer loop
      vertex 3.46756 -7.08279 1
      vertex 3.21007 -6.04808 1
      vertex 2.54876 -6.37545 1
    endloop
  endfacet
  facet normal 0 0 1
    outer loop
      vertex 4.53852 -6.41637 1
      vertex 3.83625 -5.65641 1
      vertex 3.74847 -6.93665 1
    endloop
  endfacet
  facet normal 0 -0 1
    outer loop
      vertex 5.49244 -5.59211 1
      vertex 6.30004 -4.6217 1
      vertex 4.94818 -4.67431 1
    endloop
  endfacet
  facet normal 0 0 1
    outer loop
      vertex 6.30004 -4.6217 1
      vertex 5.83772 -3.45254 1
      vertex 5.42221 -4.08973 1
    endloop
  endfacet
  facet normal 0 -0 1
    outer loop
      vertex 7.34759 -2.57567 1
      vertex 7.6168 -1.60526 1
      vertex 6.51072 -1.79817 1
    endloop
  endfacet
  facet normal 0 0 1
    outer loop
      vertex 6.0601 4.93036 1
      vertex 5.36369 5.68447 1
      vertex 4.995 4.57961 1
    endloop
  endfacet
  facet normal 0 0 1
    outer loop
      vertex 7.77481 0.376471 1
      vertex 7.66361 1.37026 1
      vertex 6.70385 0.715528 1
    endloop
  endfacet
  facet normal 0 0 1
    outer loop
      vertex 4.03523 6.78349 1
      vertex 3.92404 5.5734 1
      vertex 4.59704 6.36843 1
    endloop
  endfacet
  facet normal 0 0 1
    outer loop
      vertex 6.73896 3.9658 1
      vertex 6.48146 4.38085 1
      vertex 5.9138 3.276 1
    endloop
  endfacet
  facet normal 0 -0 1
    outer loop
      vertex 5.9138 3.276 1
      vertex 6.48146 4.38085 1
      vertex 5.42806 4.0418 1
    endloop
  endfacet
  facet normal 0 -0 1
    outer loop
      vertex 4.62045 4.97128 1
      vertex 5.36369 5.68447 1
      vertex 4.59704 6.36843 1
    endloop
  endfacet
  facet normal 0 -0 1
    outer loop
      vertex 4.995 4.57961 1
      vertex 5.36369 5.68447 1
      vertex 4.62045 4.97128 1
    endloop
  endfacet
  facet normal 0 0 1
    outer loop
      vertex 6.17715 -2.76273 1
      vertex 7.34759 -2.57567 1
      vertex 6.38783 -2.20738 1
    endloop
  endfacet
  facet normal 0 0 1
    outer loop
      vertex 5.49244 -5.59211 1
      vertex 4.94818 -4.67431 1
      vertex 4.41563 -5.19459 1
    endloop
  endfacet
  facet normal 0 0 1
    outer loop
      vertex 2.43757 7.5376 1
      vertex 1.68849 7.76558 1
      vertex 1.91672 6.61396 1
    endloop
  endfacet
  facet normal 0 -0 1
    outer loop
      vertex 2.97012 6.18721 1
      vertex 3.17495 7.23946 1
      vertex 1.91672 6.61396 1
    endloop
  endfacet
  facet normal 0 -0 1
    outer loop
      vertex 0.184462 6.95301 1
      vertex 0.845764 7.93511 1
      vertex -0.201785 7.98188 1
    endloop
  endfacet
  facet normal 0 0 1
    outer loop
      vertex -0.564623 6.96471 1
      vertex -0.833826 7.97603 1
      vertex -1.17911 7.95849 1
    endloop
  endfacet
  facet normal 0 0 1
    outer loop
      vertex -0.564623 6.96471 1
      vertex -1.17911 7.95849 1
      vertex -1.29615 6.88286 1
    endloop
  endfacet
  facet normal 0 0 1
    outer loop
      vertex -1.94575 6.73672 1
      vertex -2.80603 7.56682 1
      vertex -2.81773 6.45027 1
    endloop
  endfacet
  facet normal 0 0 1
    outer loop
      vertex -4.1696 6.96471 1
      vertex -4.19301 5.75462 1
      vertex -3.64875 6.07614 1
    endloop
  endfacet
  facet normal -0 0 1
    outer loop
      vertex -4.1696 6.96471 1
      vertex -2.81773 6.45027 1
      vertex -2.80603 7.56682 1
    endloop
  endfacet
  facet normal 0 0 1
    outer loop
      vertex -7.86821 2.40497 1
      vertex -7.01963 1.68593 1
      vertex -6.96111 1.90223 1
    endloop
  endfacet
  facet normal 0 0 1
    outer loop
      vertex -8.17838 0.961052 1
      vertex -7.11327 1.07797 1
      vertex -7.06645 1.44626 1
    endloop
  endfacet
  facet normal 0 0 1
    outer loop
      vertex -5.37516 6.1346 1
      vertex -5.24056 4.82514 1
      vertex -4.77238 5.28111 1
    endloop
  endfacet
  facet normal -0 0 1
    outer loop
      vertex -8.22519 -0.506248 1
      vertex -7.11912 -0.932992 1
      vertex -7.14838 -0.219803 1
    endloop
  endfacet
  facet normal -0 0 1
    outer loop
      vertex -7.50537 -3.34147 1
      vertex -6.2764 -3.47008 1
      vertex -6.49879 -3.03164 1
    endloop
  endfacet
  facet normal 0 0 1
    outer loop
      vertex -1.29615 6.88286 1
      vertex -1.67069 7.87665 1
      vertex -1.94575 6.73672 1
    endloop
  endfacet
  facet normal -0 0 1
    outer loop
      vertex -5.4922 -6.03054 1
      vertex -4.70215 -6.63266 1
      vertex -4.29835 -5.65057 1
    endloop
  endfacet
  facet normal 0 0 1
    outer loop
      vertex -3.57852 -6.10069 1
      vertex -3.57267 -7.26986 1
      vertex -3.14546 -6.31699 1
    endloop
  endfacet
  facet normal 0 0 1
    outer loop
      vertex -3.57267 -7.26986 1
      vertex -2.59535 -6.53913 1
      vertex -3.14546 -6.31699 1
    endloop
  endfacet
  facet normal 0 -0 1
    outer loop
      vertex -2.32614 -7.71414 1
      vertex -1.85211 -6.76127 1
      vertex -2.59535 -6.53913 1
    endloop
  endfacet
  facet normal 0 -0 1
    outer loop
      vertex -1.302 -7.93043 1
      vertex -1.09718 -6.90157 1
      vertex -1.85211 -6.76127 1
    endloop
  endfacet
  facet normal 0 0 1
    outer loop
      vertex -0.506101 -8.01228 1
      vertex -1.09718 -6.90157 1
      vertex -1.302 -7.93043 1
    endloop
  endfacet
  facet normal 0 0 1
    outer loop
      vertex -0.348091 -6.95418 1
      vertex -1.09718 -6.90157 1
      vertex -0.506101 -8.01228 1
    endloop
  endfacet
  facet normal 0 -0 1
    outer loop
      vertex 0.99207 -7.89536 1
      vertex 1.13838 -6.81388 1
      vertex 0.400995 -6.92495 1
    endloop
  endfacet
  facet normal 0 0 1
    outer loop
      vertex 0.400995 -6.92495 1
      vertex -0.114001 -8.01812 1
      vertex 0.289802 -7.99474 1
    endloop
  endfacet
  facet normal 0 -0 1
    outer loop
      vertex 1.54803 -7.79598 1
      vertex 1.85235 -6.63266 1
      vertex 1.13838 -6.81388 1
    endloop
  endfacet
  facet normal 0 0 1
    outer loop
      vertex 3.67239 6.99393 1
      vertex 3.17495 7.23946 1
      vertex 2.97012 6.18721 1
    endloop
  endfacet
  facet normal -0 0 1
    outer loop
      vertex -2.32614 -7.71414 1
      vertex -1.302 -7.93043 1
      vertex -1.85211 -6.76127 1
    endloop
  endfacet
  facet normal 0 0 1
    outer loop
      vertex 6.30004 -4.6217 1
      vertex 5.42221 -4.08973 1
      vertex 4.94818 -4.67431 1
    endloop
  endfacet
  facet normal -0 0 1
    outer loop
      vertex -3.57267 -7.26986 1
      vertex -2.32614 -7.71414 1
      vertex -2.59535 -6.53913 1
    endloop
  endfacet
  facet normal 0 0 1
    outer loop
      vertex -3.57852 -6.10069 1
      vertex -4.70215 -6.63266 1
      vertex -3.57267 -7.26986 1
    endloop
  endfacet
  facet normal 0 0 1
    outer loop
      vertex -4.29835 -5.65057 1
      vertex -4.70215 -6.63266 1
      vertex -3.57852 -6.10069 1
    endloop
  endfacet
  facet normal 0 0 1
    outer loop
      vertex -4.29835 -5.65057 1
      vertex -5.12351 -4.97245 1
      vertex -5.4922 -6.03054 1
    endloop
  endfacet
  facet normal 0 0 1
    outer loop
      vertex -5.81993 -4.17157 1
      vertex -6.0072 -5.5395 1
      vertex -5.12351 -4.97245 1
    endloop
  endfacet
  facet normal 0 0 1
    outer loop
      vertex -5.12351 -4.97245 1
      vertex -6.0072 -5.5395 1
      vertex -5.4922 -6.03054 1
    endloop
  endfacet
  facet normal 0 0 1
    outer loop
      vertex -6.2764 -3.47008 1
      vertex -6.74458 -4.63924 1
      vertex -5.81993 -4.17157 1
    endloop
  endfacet
  facet normal 0 0 1
    outer loop
      vertex -5.81993 -4.17157 1
      vertex -6.74458 -4.63924 1
      vertex -6.0072 -5.5395 1
    endloop
  endfacet
  facet normal 0 0 1
    outer loop
      vertex -7.50537 -3.34147 1
      vertex -6.74458 -4.63924 1
      vertex -6.2764 -3.47008 1
    endloop
  endfacet
  facet normal 0 0 1
    outer loop
      vertex -6.49879 -3.03164 1
      vertex -6.77384 -2.43537 1
      vertex -7.50537 -3.34147 1
    endloop
  endfacet
  facet normal 0 0 1
    outer loop
      vertex -6.77384 -2.43537 1
      vertex -7.99696 -1.95016 1
      vertex -7.50537 -3.34147 1
    endloop
  endfacet
  facet normal 0 0 1
    outer loop
      vertex -7.11912 -0.932992 1
      vertex -7.99696 -1.95016 1
      vertex -7.00208 -1.71049 1
    endloop
  endfacet
  facet normal 0 0 1
    outer loop
      vertex -7.00208 -1.71049 1
      vertex -7.99696 -1.95016 1
      vertex -6.77384 -2.43537 1
    endloop
  endfacet
  facet normal 0 0 1
    outer loop
      vertex -8.22519 -0.506248 1
      vertex -7.99696 -1.95016 1
      vertex -7.11912 -0.932992 1
    endloop
  endfacet
  facet normal 0 -0 1
    outer loop
      vertex -7.14838 -0.219803 1
      vertex -7.13668 0.610303 1
      vertex -8.22519 -0.506248 1
    endloop
  endfacet
  facet normal 0 0 1
    outer loop
      vertex -7.11327 1.07797 1
      vertex -8.17838 0.961052 1
      vertex -7.13668 0.610303 1
    endloop
  endfacet
  facet normal 0 0 1
    outer loop
      vertex -7.13668 0.610303 1
      vertex -8.17838 0.961052 1
      vertex -8.22519 -0.506248 1
    endloop
  endfacet
  facet normal 0 0 1
    outer loop
      vertex -8.17838 0.961052 1
      vertex -7.06645 1.44626 1
      vertex -7.86821 2.40497 1
    endloop
  endfacet
  facet normal 0 -0 1
    outer loop
      vertex -7.06645 1.44626 1
      vertex -7.01963 1.68593 1
      vertex -7.86821 2.40497 1
    endloop
  endfacet
  facet normal 0 0 1
    outer loop
      vertex -7.86821 2.40497 1
      vertex -6.96111 1.90223 1
      vertex -6.82066 2.30559 1
    endloop
  endfacet
  facet normal -0 0 1
    outer loop
      vertex -7.86821 2.40497 1
      vertex -6.82066 2.30559 1
      vertex -6.57486 2.88433 1
    endloop
  endfacet
  facet normal 0 0 1
    outer loop
      vertex -7.86821 2.40497 1
      vertex -6.57486 2.88433 1
      vertex -7.28298 3.78458 1
    endloop
  endfacet
  facet normal 0 -0 1
    outer loop
      vertex -6.29981 3.43383 1
      vertex -6.09498 3.79043 1
      vertex -7.28298 3.78458 1
    endloop
  endfacet
  facet normal 0 -0 1
    outer loop
      vertex -6.57486 2.88433 1
      vertex -6.29981 3.43383 1
      vertex -7.28298 3.78458 1
    endloop
  endfacet
  facet normal 0 0 1
    outer loop
      vertex -7.28298 3.78458 1
      vertex -6.09498 3.79043 1
      vertex -6.66265 4.77252 1
    endloop
  endfacet
  facet normal 0 -0 1
    outer loop
      vertex -6.09498 3.79043 1
      vertex -5.94282 4.01257 1
      vertex -6.66265 4.77252 1
    endloop
  endfacet
  facet normal 0 0 1
    outer loop
      vertex -5.67947 4.33993 1
      vertex -6.18277 5.35711 1
      vertex -6.66265 4.77252 1
    endloop
  endfacet
  facet normal 0 -0 1
    outer loop
      vertex -5.94282 4.01257 1
      vertex -5.67947 4.33993 1
      vertex -6.66265 4.77252 1
    endloop
  endfacet
  facet normal 0 0 1
    outer loop
      vertex -5.24056 4.82514 1
      vertex -6.18277 5.35711 1
      vertex -5.67947 4.33993 1
    endloop
  endfacet
  facet normal 0 0 1
    outer loop
      vertex -5.37516 6.1346 1
      vertex -6.18277 5.35711 1
      vertex -5.24056 4.82514 1
    endloop
  endfacet
  facet normal 0 0 1
    outer loop
      vertex -4.47391 5.55002 1
      vertex -5.37516 6.1346 1
      vertex -4.77238 5.28111 1
    endloop
  endfacet
  facet normal 0 0 1
    outer loop
      vertex -4.19301 5.75462 1
      vertex -5.37516 6.1346 1
      vertex -4.47391 5.55002 1
    endloop
  endfacet
  facet normal 0 0 1
    outer loop
      vertex -4.1696 6.96471 1
      vertex -5.37516 6.1346 1
      vertex -4.19301 5.75462 1
    endloop
  endfacet
  facet normal 0 0 1
    outer loop
      vertex -2.81773 6.45027 1
      vertex -4.1696 6.96471 1
      vertex -3.64875 6.07614 1
    endloop
  endfacet
  facet normal 0 -0 1
    outer loop
      vertex -1.94575 6.73672 1
      vertex -1.67069 7.87665 1
      vertex -2.80603 7.56682 1
    endloop
  endfacet
  facet normal 0 -0 1
    outer loop
      vertex -1.29615 6.88286 1
      vertex -1.17911 7.95849 1
      vertex -1.67069 7.87665 1
    endloop
  endfacet
  facet normal 0 0 1
    outer loop
      vertex -0.564623 6.96471 1
      vertex -0.19008 6.98224 1
      vertex -0.201785 7.98188 1
    endloop
  endfacet
  facet normal -0 0 1
    outer loop
      vertex -0.833826 7.97603 1
      vertex -0.564623 6.96471 1
      vertex -0.201785 7.98188 1
    endloop
  endfacet
  facet normal -0 -0 1
    outer loop
      vertex -0.19008 6.98224 1
      vertex 0.184462 6.95301 1
      vertex -0.201785 7.98188 1
    endloop
  endfacet
  facet normal 0 0 1
    outer loop
      vertex 0.845764 7.93511 1
      vertex 1.01548 6.83025 1
      vertex 1.15593 7.88834 1
    endloop
  endfacet
  facet normal 0 0 1
    outer loop
      vertex 0.845764 7.93511 1
      vertex 0.184462 6.95301 1
      vertex 1.01548 6.83025 1
    endloop
  endfacet
  facet normal -0 0 1
    outer loop
      vertex 1.01548 6.83025 1
      vertex 1.91672 6.61396 1
      vertex 1.68849 7.76558 1
    endloop
  endfacet
  facet normal 0 0 1
    outer loop
      vertex 1.15593 7.88834 1
      vertex 1.01548 6.83025 1
      vertex 1.68849 7.76558 1
    endloop
  endfacet
  facet normal 0 0 1
    outer loop
      vertex 1.91672 6.61396 1
      vertex 3.17495 7.23946 1
      vertex 2.43757 7.5376 1
    endloop
  endfacet
  facet normal 0 0 1
    outer loop
      vertex 3.67239 6.99393 1
      vertex 2.97012 6.18721 1
      vertex 4.03523 6.78349 1
    endloop
  endfacet
  facet normal -0 0 1
    outer loop
      vertex 2.97012 6.18721 1
      vertex 3.92404 5.5734 1
      vertex 4.03523 6.78349 1
    endloop
  endfacet
  facet normal -0 0 1
    outer loop
      vertex 3.92404 5.5734 1
      vertex 4.62045 4.97128 1
      vertex 4.59704 6.36843 1
    endloop
  endfacet
  facet normal 0 0 1
    outer loop
      vertex 6.0601 4.93036 1
      vertex 4.995 4.57961 1
      vertex 5.42806 4.0418 1
    endloop
  endfacet
  facet normal 0 0 1
    outer loop
      vertex 5.42806 4.0418 1
      vertex 6.48146 4.38085 1
      vertex 6.0601 4.93036 1
    endloop
  endfacet
  facet normal 0 0 1
    outer loop
      vertex 6.73896 3.9658 1
      vertex 5.9138 3.276 1
      vertex 7.07839 3.28184 1
    endloop
  endfacet
  facet normal -0 0 1
    outer loop
      vertex 6.28834 2.45758 1
      vertex 7.43538 2.34066 1
      vertex 7.07839 3.28184 1
    endloop
  endfacet
  facet normal -0 0 1
    outer loop
      vertex 5.9138 3.276 1
      vertex 6.28834 2.45758 1
      vertex 7.07839 3.28184 1
    endloop
  endfacet
  facet normal -0 0 1
    outer loop
      vertex 6.55169 1.59825 1
      vertex 7.66361 1.37026 1
      vertex 7.43538 2.34066 1
    endloop
  endfacet
  facet normal 0 0 1
    outer loop
      vertex 6.28834 2.45758 1
      vertex 6.55169 1.59825 1
      vertex 7.43538 2.34066 1
    endloop
  endfacet
  facet normal 0 -0 1
    outer loop
      vertex 6.70385 0.715528 1
      vertex 7.66361 1.37026 1
      vertex 6.55169 1.59825 1
    endloop
  endfacet
  facet normal -0 0 1
    outer loop
      vertex 6.73896 -0.190574 1
      vertex 7.75725 -0.617318 1
      vertex 7.77481 0.376471 1
    endloop
  endfacet
  facet normal 0 0 1
    outer loop
      vertex 6.70385 0.715528 1
      vertex 6.73896 -0.190574 1
      vertex 7.77481 0.376471 1
    endloop
  endfacet
  facet normal -0 0 1
    outer loop
      vertex 6.65118 -1.10837 1
      vertex 7.6168 -1.60526 1
      vertex 7.75725 -0.617318 1
    endloop
  endfacet
  facet normal 0 0 1
    outer loop
      vertex 6.73896 -0.190574 1
      vertex 6.65118 -1.10837 1
      vertex 7.75725 -0.617318 1
    endloop
  endfacet
  facet normal 0 0 1
    outer loop
      vertex 6.51072 -1.79817 1
      vertex 7.6168 -1.60526 1
      vertex 6.65118 -1.10837 1
    endloop
  endfacet
  facet normal -0 0 1
    outer loop
      vertex 6.38783 -2.20738 1
      vertex 7.34759 -2.57567 1
      vertex 6.51072 -1.79817 1
    endloop
  endfacet
  facet normal 0 0 1
    outer loop
      vertex 6.17715 -2.76273 1
      vertex 6.81504 -3.80329 1
      vertex 7.06669 -3.28886 1
    endloop
  endfacet
  facet normal 0 0 1
    outer loop
      vertex 7.34759 -2.57567 1
      vertex 6.17715 -2.76273 1
      vertex 7.06669 -3.28886 1
    endloop
  endfacet
  facet normal -0 0 1
    outer loop
      vertex 5.83772 -3.45254 1
      vertex 6.81504 -3.80329 1
      vertex 6.17715 -2.76273 1
    endloop
  endfacet
  facet normal 0 -0 1
    outer loop
      vertex 6.30004 -4.6217 1
      vertex 6.81504 -3.80329 1
      vertex 5.83772 -3.45254 1
    endloop
  endfacet
  facet normal 0 0 1
    outer loop
      vertex 4.53852 -6.41637 1
      vertex 4.41563 -5.19459 1
      vertex 3.83625 -5.65641 1
    endloop
  endfacet
  facet normal 0 0 1
    outer loop
      vertex 5.49244 -5.59211 1
      vertex 4.41563 -5.19459 1
      vertex 4.53852 -6.41637 1
    endloop
  endfacet
  facet normal 0 -0 1
    outer loop
      vertex 3.74847 -6.93665 1
      vertex 3.83625 -5.65641 1
      vertex 3.21007 -6.04808 1
    endloop
  endfacet
  facet normal 0 0 1
    outer loop
      vertex 3.74847 -6.93665 1
      vertex 3.21007 -6.04808 1
      vertex 3.46756 -7.08279 1
    endloop
  endfacet
  facet normal 0 0 1
    outer loop
      vertex 3.46756 -7.08279 1
      vertex 2.54876 -6.37545 1
      vertex 2.79456 -7.39847 1
    endloop
  endfacet
  facet normal 0 0 1
    outer loop
      vertex 2.79456 -7.39847 1
      vertex 1.85235 -6.63266 1
      vertex 2.18593 -7.62645 1
    endloop
  endfacet
  facet normal 0 0 1
    outer loop
      vertex 1.85235 -6.63266 1
      vertex 1.54803 -7.79598 1
      vertex 2.18593 -7.62645 1
    endloop
  endfacet
  facet normal 0 0 1
    outer loop
      vertex 1.13838 -6.81388 1
      vertex 0.99207 -7.89536 1
      vertex 1.54803 -7.79598 1
    endloop
  endfacet
  facet normal 0 0 1
    outer loop
      vertex 0.400995 -6.92495 1
      vertex 0.289802 -7.99474 1
      vertex 0.99207 -7.89536 1
    endloop
  endfacet
  facet normal -0 0 1
    outer loop
      vertex -0.348091 -6.95418 1
      vertex -0.114001 -8.01812 1
      vertex 0.400995 -6.92495 1
    endloop
  endfacet
  facet normal 0.140115 -0.990135 0
    outer loop
      vertex 0.99207 -7.89536 0
      vertex 0.289802 -7.99474 1
      vertex 0.289802 -7.99474 0
    endloop
  endfacet
  facet normal 0.140115 -0.990135 0
    outer loop
      vertex 0.99207 -7.89536 0
      vertex 0.99207 -7.89536 1
      vertex 0.289802 -7.99474 1
    endloop
  endfacet
  facet normal 0.175962 -0.984397 0
    outer loop
      vertex 1.54803 -7.79598 0
      vertex 0.99207 -7.89536 1
      vertex 0.99207 -7.89536 0
    endloop
  endfacet
  facet normal 0.175962 -0.984397 0
    outer loop
      vertex 1.54803 -7.79598 0
      vertex 1.54803 -7.79598 1
      vertex 0.99207 -7.89536 1
    endloop
  endfacet
  facet normal 0.256848 -0.966452 0
    outer loop
      vertex 2.18593 -7.62645 0
      vertex 1.54803 -7.79598 1
      vertex 1.54803 -7.79598 0
    endloop
  endfacet
  facet normal 0.256848 -0.966452 0
    outer loop
      vertex 2.18593 -7.62645 0
      vertex 2.18593 -7.62645 1
      vertex 1.54803 -7.79598 1
    endloop
  endfacet
  facet normal 0.350786 -0.936456 0
    outer loop
      vertex 2.79456 -7.39847 0
      vertex 2.18593 -7.62645 1
      vertex 2.18593 -7.62645 0
    endloop
  endfacet
  facet normal 0.350786 -0.936456 0
    outer loop
      vertex 2.79456 -7.39847 0
      vertex 2.79456 -7.39847 1
      vertex 2.18593 -7.62645 1
    endloop
  endfacet
  facet normal 0.424657 -0.905354 0
    outer loop
      vertex 3.46756 -7.08279 0
      vertex 2.79456 -7.39847 1
      vertex 2.79456 -7.39847 0
    endloop
  endfacet
  facet normal 0.424657 -0.905354 0
    outer loop
      vertex 3.46756 -7.08279 0
      vertex 3.46756 -7.08279 1
      vertex 2.79456 -7.39847 1
    endloop
  endfacet
  facet normal 0.461536 -0.887121 0
    outer loop
      vertex 3.74847 -6.93665 0
      vertex 3.46756 -7.08279 1
      vertex 3.46756 -7.08279 0
    endloop
  endfacet
  facet normal 0.461536 -0.887121 0
    outer loop
      vertex 3.74847 -6.93665 0
      vertex 3.74847 -6.93665 1
      vertex 3.46756 -7.08279 1
    endloop
  endfacet
  facet normal 0.549991 -0.835171 0
    outer loop
      vertex 4.53852 -6.41637 0
      vertex 3.74847 -6.93665 1
      vertex 3.74847 -6.93665 0
    endloop
  endfacet
  facet normal 0.549991 -0.835171 0
    outer loop
      vertex 4.53852 -6.41637 0
      vertex 4.53852 -6.41637 1
      vertex 3.74847 -6.93665 1
    endloop
  endfacet
  facet normal 0.653813 -0.756656 0
    outer loop
      vertex 5.49244 -5.59211 0
      vertex 4.53852 -6.41637 1
      vertex 4.53852 -6.41637 0
    endloop
  endfacet
  facet normal 0.653813 -0.756656 0
    outer loop
      vertex 5.49244 -5.59211 0
      vertex 5.49244 -5.59211 1
      vertex 4.53852 -6.41637 1
    endloop
  endfacet
  facet normal 0.768635 -0.639687 0
    outer loop
      vertex 6.30004 -4.6217 0
      vertex 5.49244 -5.59211 1
      vertex 5.49244 -5.59211 0
    endloop
  endfacet
  facet normal 0.768635 -0.639687 0
    outer loop
      vertex 6.30004 -4.6217 0
      vertex 6.30004 -4.6217 1
      vertex 5.49244 -5.59211 1
    endloop
  endfacet
  facet normal 0.846373 -0.53259 0
    outer loop
      vertex 6.81504 -3.80329 0
      vertex 6.30004 -4.6217 1
      vertex 6.30004 -4.6217 0
    endloop
  endfacet
  facet normal 0.846373 -0.53259 0
    outer loop
      vertex 6.81504 -3.80329 0
      vertex 6.81504 -3.80329 1
      vertex 6.30004 -4.6217 1
    endloop
  endfacet
  facet normal 0.898284 -0.439416 0
    outer loop
      vertex 7.06669 -3.28886 0
      vertex 6.81504 -3.80329 1
      vertex 6.81504 -3.80329 0
    endloop
  endfacet
  facet normal 0.898284 -0.439416 0
    outer loop
      vertex 7.06669 -3.28886 0
      vertex 7.06669 -3.28886 1
      vertex 6.81504 -3.80329 1
    endloop
  endfacet
  facet normal 0.930429 -0.366472 0
    outer loop
      vertex 7.34759 -2.57567 0
      vertex 7.06669 -3.28886 1
      vertex 7.06669 -3.28886 0
    endloop
  endfacet
  facet normal 0.930429 -0.366472 0
    outer loop
      vertex 7.34759 -2.57567 0
      vertex 7.34759 -2.57567 1
      vertex 7.06669 -3.28886 1
    endloop
  endfacet
  facet normal 0.963609 -0.267317 0
    outer loop
      vertex 7.6168 -1.60526 0
      vertex 7.34759 -2.57567 1
      vertex 7.34759 -2.57567 0
    endloop
  endfacet
  facet normal 0.963609 -0.267317 0
    outer loop
      vertex 7.6168 -1.60526 0
      vertex 7.6168 -1.60526 1
      vertex 7.34759 -2.57567 1
    endloop
  endfacet
  facet normal 0.990045 -0.140752 0
    outer loop
      vertex 7.75725 -0.617318 0
      vertex 7.6168 -1.60526 1
      vertex 7.6168 -1.60526 0
    endloop
  endfacet
  facet normal 0.990045 -0.140752 0
    outer loop
      vertex 7.75725 -0.617318 0
      vertex 7.75725 -0.617318 1
      vertex 7.6168 -1.60526 1
    endloop
  endfacet
  facet normal 0.999844 -0.0176637 0
    outer loop
      vertex 7.77481 0.376471 0
      vertex 7.75725 -0.617318 1
      vertex 7.75725 -0.617318 0
    endloop
  endfacet
  facet normal 0.999844 -0.0176637 0
    outer loop
      vertex 7.77481 0.376471 0
      vertex 7.77481 0.376471 1
      vertex 7.75725 -0.617318 1
    endloop
  endfacet
  facet normal 0.993799 0.111194 0
    outer loop
      vertex 7.66361 1.37026 0
      vertex 7.77481 0.376471 1
      vertex 7.77481 0.376471 0
    endloop
  endfacet
  facet normal 0.993799 0.111194 -0
    outer loop
      vertex 7.66361 1.37026 0
      vertex 7.66361 1.37026 1
      vertex 7.77481 0.376471 1
    endloop
  endfacet
  facet normal 0.973438 0.22895 0
    outer loop
      vertex 7.43538 2.34066 0
      vertex 7.66361 1.37026 1
      vertex 7.66361 1.37026 0
    endloop
  endfacet
  facet normal 0.973438 0.22895 -0
    outer loop
      vertex 7.43538 2.34066 0
      vertex 7.43538 2.34066 1
      vertex 7.66361 1.37026 1
    endloop
  endfacet
  facet normal 0.935001 0.354644 0
    outer loop
      vertex 7.07839 3.28184 0
      vertex 7.43538 2.34066 1
      vertex 7.43538 2.34066 0
    endloop
  endfacet
  facet normal 0.935001 0.354644 -0
    outer loop
      vertex 7.07839 3.28184 0
      vertex 7.07839 3.28184 1
      vertex 7.43538 2.34066 1
    endloop
  endfacet
  facet normal 0.89576 0.444539 0
    outer loop
      vertex 6.73896 3.9658 0
      vertex 7.07839 3.28184 1
      vertex 7.07839 3.28184 0
    endloop
  endfacet
  facet normal 0.89576 0.444539 -0
    outer loop
      vertex 6.73896 3.9658 0
      vertex 6.73896 3.9658 1
      vertex 7.07839 3.28184 1
    endloop
  endfacet
  facet normal 0.849751 0.527184 0
    outer loop
      vertex 6.48146 4.38085 0
      vertex 6.73896 3.9658 1
      vertex 6.73896 3.9658 0
    endloop
  endfacet
  facet normal 0.849751 0.527184 -0
    outer loop
      vertex 6.48146 4.38085 0
      vertex 6.48146 4.38085 1
      vertex 6.73896 3.9658 1
    endloop
  endfacet
  facet normal 0.793556 0.608497 0
    outer loop
      vertex 6.0601 4.93036 0
      vertex 6.48146 4.38085 1
      vertex 6.48146 4.38085 0
    endloop
  endfacet
  facet normal 0.793556 0.608497 -0
    outer loop
      vertex 6.0601 4.93036 0
      vertex 6.0601 4.93036 1
      vertex 6.48146 4.38085 1
    endloop
  endfacet
  facet normal 0.734651 0.678445 0
    outer loop
      vertex 5.36369 5.68447 0
      vertex 6.0601 4.93036 1
      vertex 6.0601 4.93036 0
    endloop
  endfacet
  facet normal 0.734651 0.678445 -0
    outer loop
      vertex 5.36369 5.68447 0
      vertex 5.36369 5.68447 1
      vertex 6.0601 4.93036 1
    endloop
  endfacet
  facet normal 0.665722 0.746199 0
    outer loop
      vertex 4.59704 6.36843 0
      vertex 5.36369 5.68447 1
      vertex 5.36369 5.68447 0
    endloop
  endfacet
  facet normal 0.665722 0.746199 -0
    outer loop
      vertex 4.59704 6.36843 0
      vertex 4.59704 6.36843 1
      vertex 5.36369 5.68447 1
    endloop
  endfacet
  facet normal 0.594205 0.804314 0
    outer loop
      vertex 4.03523 6.78349 0
      vertex 4.59704 6.36843 1
      vertex 4.59704 6.36843 0
    endloop
  endfacet
  facet normal 0.594205 0.804314 -0
    outer loop
      vertex 4.03523 6.78349 0
      vertex 4.03523 6.78349 1
      vertex 4.59704 6.36843 1
    endloop
  endfacet
  facet normal 0.501724 0.865028 0
    outer loop
      vertex 3.67239 6.99393 0
      vertex 4.03523 6.78349 1
      vertex 4.03523 6.78349 0
    endloop
  endfacet
  facet normal 0.501724 0.865028 -0
    outer loop
      vertex 3.67239 6.99393 0
      vertex 3.67239 6.99393 1
      vertex 4.03523 6.78349 1
    endloop
  endfacet
  facet normal 0.442599 0.89672 0
    outer loop
      vertex 3.17495 7.23946 0
      vertex 3.67239 6.99393 1
      vertex 3.67239 6.99393 0
    endloop
  endfacet
  facet normal 0.442599 0.89672 -0
    outer loop
      vertex 3.17495 7.23946 0
      vertex 3.17495 7.23946 1
      vertex 3.67239 6.99393 1
    endloop
  endfacet
  facet normal 0.374839 0.92709 0
    outer loop
      vertex 2.43757 7.5376 0
      vertex 3.17495 7.23946 1
      vertex 3.17495 7.23946 0
    endloop
  endfacet
  facet normal 0.374839 0.92709 -0
    outer loop
      vertex 2.43757 7.5376 0
      vertex 2.43757 7.5376 1
      vertex 3.17495 7.23946 1
    endloop
  endfacet
  facet normal 0.291167 0.956672 0
    outer loop
      vertex 1.68849 7.76558 0
      vertex 2.43757 7.5376 1
      vertex 2.43757 7.5376 0
    endloop
  endfacet
  facet normal 0.291167 0.956672 -0
    outer loop
      vertex 1.68849 7.76558 0
      vertex 1.68849 7.76558 1
      vertex 2.43757 7.5376 1
    endloop
  endfacet
  facet normal 0.224625 0.974445 0
    outer loop
      vertex 1.15593 7.88834 0
      vertex 1.68849 7.76558 1
      vertex 1.68849 7.76558 0
    endloop
  endfacet
  facet normal 0.224625 0.974445 -0
    outer loop
      vertex 1.15593 7.88834 0
      vertex 1.15593 7.88834 1
      vertex 1.68849 7.76558 1
    endloop
  endfacet
  facet normal 0.149093 0.988823 0
    outer loop
      vertex 0.845764 7.93511 0
      vertex 1.15593 7.88834 1
      vertex 1.15593 7.88834 0
    endloop
  endfacet
  facet normal 0.149093 0.988823 -0
    outer loop
      vertex 0.845764 7.93511 0
      vertex 0.845764 7.93511 1
      vertex 1.15593 7.88834 1
    endloop
  endfacet
  facet normal 0.0445993 0.999005 0
    outer loop
      vertex -0.201785 7.98188 0
      vertex 0.845764 7.93511 1
      vertex 0.845764 7.93511 0
    endloop
  endfacet
  facet normal 0.0445993 0.999005 -0
    outer loop
      vertex -0.201785 7.98188 0
      vertex -0.201785 7.98188 1
      vertex 0.845764 7.93511 1
    endloop
  endfacet
  facet normal -0.00924871 0.999957 0
    outer loop
      vertex -0.833826 7.97603 0
      vertex -0.201785 7.98188 1
      vertex -0.201785 7.98188 0
    endloop
  endfacet
  facet normal -0.00924871 0.999957 0
    outer loop
      vertex -0.833826 7.97603 0
      vertex -0.833826 7.97603 1
      vertex -0.201785 7.98188 1
    endloop
  endfacet
  facet normal -0.0507263 0.998713 0
    outer loop
      vertex -1.17911 7.95849 0
      vertex -0.833826 7.97603 1
      vertex -0.833826 7.97603 0
    endloop
  endfacet
  facet normal -0.0507263 0.998713 0
    outer loop
      vertex -1.17911 7.95849 0
      vertex -1.17911 7.95849 1
      vertex -0.833826 7.97603 1
    endloop
  endfacet
  facet normal -0.164224 0.986423 0
    outer loop
      vertex -1.67069 7.87665 0
      vertex -1.17911 7.95849 1
      vertex -1.17911 7.95849 0
    endloop
  endfacet
  facet normal -0.164224 0.986423 0
    outer loop
      vertex -1.67069 7.87665 0
      vertex -1.67069 7.87665 1
      vertex -1.17911 7.95849 1
    endloop
  endfacet
  facet normal -0.263269 0.964722 0
    outer loop
      vertex -2.80603 7.56682 0
      vertex -1.67069 7.87665 1
      vertex -1.67069 7.87665 0
    endloop
  endfacet
  facet normal -0.263269 0.964722 0
    outer loop
      vertex -2.80603 7.56682 0
      vertex -2.80603 7.56682 1
      vertex -1.67069 7.87665 1
    endloop
  endfacet
  facet normal -0.403946 0.914783 0
    outer loop
      vertex -4.1696 6.96471 0
      vertex -2.80603 7.56682 1
      vertex -2.80603 7.56682 0
    endloop
  endfacet
  facet normal -0.403946 0.914783 0
    outer loop
      vertex -4.1696 6.96471 0
      vertex -4.1696 6.96471 1
      vertex -2.80603 7.56682 1
    endloop
  endfacet
  facet normal -0.567124 0.823632 0
    outer loop
      vertex -5.37516 6.1346 0
      vertex -4.1696 6.96471 1
      vertex -4.1696 6.96471 0
    endloop
  endfacet
  facet normal -0.567124 0.823632 0
    outer loop
      vertex -5.37516 6.1346 0
      vertex -5.37516 6.1346 1
      vertex -4.1696 6.96471 1
    endloop
  endfacet
  facet normal -0.693548 0.720411 0
    outer loop
      vertex -6.18277 5.35711 0
      vertex -5.37516 6.1346 1
      vertex -5.37516 6.1346 0
    endloop
  endfacet
  facet normal -0.693548 0.720411 0
    outer loop
      vertex -6.18277 5.35711 0
      vertex -6.18277 5.35711 1
      vertex -5.37516 6.1346 1
    endloop
  endfacet
  facet normal -0.772927 0.634495 0
    outer loop
      vertex -6.66265 4.77252 0
      vertex -6.18277 5.35711 1
      vertex -6.18277 5.35711 0
    endloop
  endfacet
  facet normal -0.772927 0.634495 0
    outer loop
      vertex -6.66265 4.77252 0
      vertex -6.66265 4.77252 1
      vertex -6.18277 5.35711 1
    endloop
  endfacet
  facet normal -0.84689 0.531768 0
    outer loop
      vertex -7.28298 3.78458 0
      vertex -6.66265 4.77252 1
      vertex -6.66265 4.77252 0
    endloop
  endfacet
  facet normal -0.84689 0.531768 0
    outer loop
      vertex -7.28298 3.78458 0
      vertex -7.28298 3.78458 1
      vertex -6.66265 4.77252 1
    endloop
  endfacet
  facet normal -0.920598 0.390512 0
    outer loop
      vertex -7.86821 2.40497 0
      vertex -7.28298 3.78458 1
      vertex -7.28298 3.78458 0
    endloop
  endfacet
  facet normal -0.920598 0.390512 0
    outer loop
      vertex -7.86821 2.40497 0
      vertex -7.86821 2.40497 1
      vertex -7.28298 3.78458 1
    endloop
  endfacet
  facet normal -0.977697 0.210019 0
    outer loop
      vertex -8.17838 0.961052 0
      vertex -7.86821 2.40497 1
      vertex -7.86821 2.40497 0
    endloop
  endfacet
  facet normal -0.977697 0.210019 0
    outer loop
      vertex -8.17838 0.961052 0
      vertex -8.17838 0.961052 1
      vertex -7.86821 2.40497 1
    endloop
  endfacet
  facet normal -0.999491 0.0318913 0
    outer loop
      vertex -8.22519 -0.506248 0
      vertex -8.17838 0.961052 1
      vertex -8.17838 0.961052 0
    endloop
  endfacet
  facet normal -0.999491 0.0318913 0
    outer loop
      vertex -8.22519 -0.506248 0
      vertex -8.22519 -0.506248 1
      vertex -8.17838 0.961052 1
    endloop
  endfacet
  facet normal -0.987737 -0.15613 0
    outer loop
      vertex -7.99696 -1.95016 0
      vertex -8.22519 -0.506248 1
      vertex -8.22519 -0.506248 0
    endloop
  endfacet
  facet normal -0.987737 -0.15613 0
    outer loop
      vertex -7.99696 -1.95016 0
      vertex -7.99696 -1.95016 1
      vertex -8.22519 -0.506248 1
    endloop
  endfacet
  facet normal -0.942876 -0.333145 0
    outer loop
      vertex -7.50537 -3.34147 0
      vertex -7.99696 -1.95016 1
      vertex -7.99696 -1.95016 0
    endloop
  endfacet
  facet normal -0.942876 -0.333145 0
    outer loop
      vertex -7.50537 -3.34147 0
      vertex -7.50537 -3.34147 1
      vertex -7.99696 -1.95016 1
    endloop
  endfacet
  facet normal -0.86269 -0.505733 0
    outer loop
      vertex -6.74458 -4.63924 0
      vertex -7.50537 -3.34147 1
      vertex -7.50537 -3.34147 0
    endloop
  endfacet
  facet normal -0.86269 -0.505733 0
    outer loop
      vertex -6.74458 -4.63924 0
      vertex -6.74458 -4.63924 1
      vertex -7.50537 -3.34147 1
    endloop
  endfacet
  facet normal -0.773617 -0.633654 0
    outer loop
      vertex -6.0072 -5.5395 0
      vertex -6.74458 -4.63924 1
      vertex -6.74458 -4.63924 0
    endloop
  endfacet
  facet normal -0.773617 -0.633654 0
    outer loop
      vertex -6.0072 -5.5395 0
      vertex -6.0072 -5.5395 1
      vertex -6.74458 -4.63924 1
    endloop
  endfacet
  facet normal -0.690079 -0.723734 0
    outer loop
      vertex -5.4922 -6.03054 0
      vertex -6.0072 -5.5395 1
      vertex -6.0072 -5.5395 0
    endloop
  endfacet
  facet normal -0.690079 -0.723734 0
    outer loop
      vertex -5.4922 -6.03054 0
      vertex -5.4922 -6.03054 1
      vertex -6.0072 -5.5395 1
    endloop
  endfacet
  facet normal -0.606155 -0.795347 0
    outer loop
      vertex -4.70215 -6.63266 0
      vertex -5.4922 -6.03054 1
      vertex -5.4922 -6.03054 0
    endloop
  endfacet
  facet normal -0.606155 -0.795347 0
    outer loop
      vertex -4.70215 -6.63266 0
      vertex -4.70215 -6.63266 1
      vertex -5.4922 -6.03054 1
    endloop
  endfacet
  facet normal -0.491351 -0.870962 0
    outer loop
      vertex -3.57267 -7.26986 0
      vertex -4.70215 -6.63266 1
      vertex -4.70215 -6.63266 0
    endloop
  endfacet
  facet normal -0.491351 -0.870962 0
    outer loop
      vertex -3.57267 -7.26986 0
      vertex -3.57267 -7.26986 1
      vertex -4.70215 -6.63266 1
    endloop
  endfacet
  facet normal -0.335729 -0.941958 0
    outer loop
      vertex -2.32614 -7.71414 0
      vertex -3.57267 -7.26986 1
      vertex -3.57267 -7.26986 0
    endloop
  endfacet
  facet normal -0.335729 -0.941958 0
    outer loop
      vertex -2.32614 -7.71414 0
      vertex -2.32614 -7.71414 1
      vertex -3.57267 -7.26986 1
    endloop
  endfacet
  facet normal -0.206639 -0.978417 0
    outer loop
      vertex -1.302 -7.93043 0
      vertex -2.32614 -7.71414 1
      vertex -2.32614 -7.71414 0
    endloop
  endfacet
  facet normal -0.206639 -0.978417 0
    outer loop
      vertex -1.302 -7.93043 0
      vertex -1.302 -7.93043 1
      vertex -2.32614 -7.71414 1
    endloop
  endfacet
  facet normal -0.102289 -0.994755 0
    outer loop
      vertex -0.506101 -8.01228 0
      vertex -1.302 -7.93043 1
      vertex -1.302 -7.93043 0
    endloop
  endfacet
  facet normal -0.102289 -0.994755 0
    outer loop
      vertex -0.506101 -8.01228 0
      vertex -0.506101 -8.01228 1
      vertex -1.302 -7.93043 1
    endloop
  endfacet
  facet normal -0.0149074 -0.999889 0
    outer loop
      vertex -0.114001 -8.01812 0
      vertex -0.506101 -8.01228 1
      vertex -0.506101 -8.01228 0
    endloop
  endfacet
  facet normal -0.0149074 -0.999889 0
    outer loop
      vertex -0.114001 -8.01812 0
      vertex -0.114001 -8.01812 1
      vertex -0.506101 -8.01228 1
    endloop
  endfacet
  facet normal 0.0578106 -0.998328 0
    outer loop
      vertex 0.289802 -7.99474 0
      vertex -0.114001 -8.01812 1
      vertex -0.114001 -8.01812 0
    endloop
  endfacet
  facet normal 0.0578106 -0.998328 0
    outer loop
      vertex 0.289802 -7.99474 0
      vertex 0.289802 -7.99474 1
      vertex -0.114001 -8.01812 1
    endloop
  endfacet
  facet normal 0.182714 0.983166 -0
    outer loop
      vertex -1.85211 -6.76127 0
      vertex -1.85211 -6.76127 1
      vertex -1.09718 -6.90157 0
    endloop
  endfacet
  facet normal 0.182714 0.983166 0
    outer loop
      vertex -1.09718 -6.90157 1
      vertex -1.09718 -6.90157 0
      vertex -1.85211 -6.76127 1
    endloop
  endfacet
  facet normal 0.286367 0.95812 -0
    outer loop
      vertex -2.59535 -6.53913 0
      vertex -2.59535 -6.53913 1
      vertex -1.85211 -6.76127 0
    endloop
  endfacet
  facet normal 0.286367 0.95812 0
    outer loop
      vertex -1.85211 -6.76127 1
      vertex -1.85211 -6.76127 0
      vertex -2.59535 -6.53913 1
    endloop
  endfacet
  facet normal 0.374436 0.927253 -0
    outer loop
      vertex -3.14546 -6.31699 0
      vertex -3.14546 -6.31699 1
      vertex -2.59535 -6.53913 0
    endloop
  endfacet
  facet normal 0.374436 0.927253 0
    outer loop
      vertex -2.59535 -6.53913 1
      vertex -2.59535 -6.53913 0
      vertex -3.14546 -6.31699 1
    endloop
  endfacet
  facet normal 0.446821 0.894623 -0
    outer loop
      vertex -3.57852 -6.10069 0
      vertex -3.57852 -6.10069 1
      vertex -3.14546 -6.31699 0
    endloop
  endfacet
  facet normal 0.446821 0.894623 0
    outer loop
      vertex -3.14546 -6.31699 1
      vertex -3.14546 -6.31699 0
      vertex -3.57852 -6.10069 1
    endloop
  endfacet
  facet normal 0.5302 0.847872 -0
    outer loop
      vertex -4.29835 -5.65057 0
      vertex -4.29835 -5.65057 1
      vertex -3.57852 -6.10069 0
    endloop
  endfacet
  facet normal 0.5302 0.847872 0
    outer loop
      vertex -3.57852 -6.10069 1
      vertex -3.57852 -6.10069 0
      vertex -4.29835 -5.65057 1
    endloop
  endfacet
  facet normal 0.634908 0.772588 -0
    outer loop
      vertex -5.12351 -4.97245 0
      vertex -5.12351 -4.97245 1
      vertex -4.29835 -5.65057 0
    endloop
  endfacet
  facet normal 0.634908 0.772588 0
    outer loop
      vertex -4.29835 -5.65057 1
      vertex -4.29835 -5.65057 0
      vertex -5.12351 -4.97245 1
    endloop
  endfacet
  facet normal 0.754605 0.656179 -0
    outer loop
      vertex -5.81993 -4.17157 0
      vertex -5.81993 -4.17157 1
      vertex -5.12351 -4.97245 0
    endloop
  endfacet
  facet normal 0.754605 0.656179 0
    outer loop
      vertex -5.12351 -4.97245 1
      vertex -5.12351 -4.97245 0
      vertex -5.81993 -4.17157 1
    endloop
  endfacet
  facet normal 0.83817 0.545409 -0
    outer loop
      vertex -6.2764 -3.47008 0
      vertex -6.2764 -3.47008 1
      vertex -5.81993 -4.17157 0
    endloop
  endfacet
  facet normal 0.83817 0.545409 0
    outer loop
      vertex -5.81993 -4.17157 1
      vertex -5.81993 -4.17157 0
      vertex -6.2764 -3.47008 1
    endloop
  endfacet
  facet normal 0.891836 0.452359 -0
    outer loop
      vertex -6.49879 -3.03164 0
      vertex -6.49879 -3.03164 1
      vertex -6.2764 -3.47008 0
    endloop
  endfacet
  facet normal 0.891836 0.452359 0
    outer loop
      vertex -6.2764 -3.47008 1
      vertex -6.2764 -3.47008 0
      vertex -6.49879 -3.03164 1
    endloop
  endfacet
  facet normal 0.908045 0.418872 -0
    outer loop
      vertex -6.77384 -2.43537 0
      vertex -6.77384 -2.43537 1
      vertex -6.49879 -3.03164 0
    endloop
  endfacet
  facet normal 0.908045 0.418872 0
    outer loop
      vertex -6.49879 -3.03164 1
      vertex -6.49879 -3.03164 0
      vertex -6.77384 -2.43537 1
    endloop
  endfacet
  facet normal 0.953837 0.300326 -0
    outer loop
      vertex -7.00208 -1.71049 0
      vertex -7.00208 -1.71049 1
      vertex -6.77384 -2.43537 0
    endloop
  endfacet
  facet normal 0.953837 0.300326 0
    outer loop
      vertex -6.77384 -2.43537 1
      vertex -6.77384 -2.43537 0
      vertex -7.00208 -1.71049 1
    endloop
  endfacet
  facet normal 0.988858 0.148864 -0
    outer loop
      vertex -7.11912 -0.932992 0
      vertex -7.11912 -0.932992 1
      vertex -7.00208 -1.71049 0
    endloop
  endfacet
  facet normal 0.988858 0.148864 0
    outer loop
      vertex -7.00208 -1.71049 1
      vertex -7.00208 -1.71049 0
      vertex -7.11912 -0.932992 1
    endloop
  endfacet
  facet normal 0.999159 0.0409941 -0
    outer loop
      vertex -7.14838 -0.219803 0
      vertex -7.14838 -0.219803 1
      vertex -7.11912 -0.932992 0
    endloop
  endfacet
  facet normal 0.999159 0.0409941 0
    outer loop
      vertex -7.11912 -0.932992 1
      vertex -7.11912 -0.932992 0
      vertex -7.14838 -0.219803 1
    endloop
  endfacet
  facet normal 0.999901 -0.0140986 0
    outer loop
      vertex -7.13668 0.610303 0
      vertex -7.13668 0.610303 1
      vertex -7.14838 -0.219803 0
    endloop
  endfacet
  facet normal 0.999901 -0.0140986 0
    outer loop
      vertex -7.14838 -0.219803 1
      vertex -7.14838 -0.219803 0
      vertex -7.13668 0.610303 1
    endloop
  endfacet
  facet normal 0.99875 -0.0499923 0
    outer loop
      vertex -7.11327 1.07797 0
      vertex -7.11327 1.07797 1
      vertex -7.13668 0.610303 0
    endloop
  endfacet
  facet normal 0.99875 -0.0499923 0
    outer loop
      vertex -7.13668 0.610303 1
      vertex -7.13668 0.610303 0
      vertex -7.11327 1.07797 1
    endloop
  endfacet
  facet normal 0.992016 -0.126109 0
    outer loop
      vertex -7.06645 1.44626 0
      vertex -7.06645 1.44626 1
      vertex -7.11327 1.07797 0
    endloop
  endfacet
  facet normal 0.992016 -0.126109 0
    outer loop
      vertex -7.11327 1.07797 1
      vertex -7.11327 1.07797 0
      vertex -7.06645 1.44626 1
    endloop
  endfacet
  facet normal 0.981451 -0.191713 0
    outer loop
      vertex -7.01963 1.68593 0
      vertex -7.01963 1.68593 1
      vertex -7.06645 1.44626 0
    endloop
  endfacet
  facet normal 0.981451 -0.191713 0
    outer loop
      vertex -7.06645 1.44626 1
      vertex -7.06645 1.44626 0
      vertex -7.01963 1.68593 1
    endloop
  endfacet
  facet normal 0.965291 -0.261176 0
    outer loop
      vertex -6.96111 1.90223 0
      vertex -6.96111 1.90223 1
      vertex -7.01963 1.68593 0
    endloop
  endfacet
  facet normal 0.965291 -0.261176 0
    outer loop
      vertex -7.01963 1.68593 1
      vertex -7.01963 1.68593 0
      vertex -6.96111 1.90223 1
    endloop
  endfacet
  facet normal 0.944385 -0.328842 0
    outer loop
      vertex -6.82066 2.30559 0
      vertex -6.82066 2.30559 1
      vertex -6.96111 1.90223 0
    endloop
  endfacet
  facet normal 0.944385 -0.328842 0
    outer loop
      vertex -6.96111 1.90223 1
      vertex -6.96111 1.90223 0
      vertex -6.82066 2.30559 1
    endloop
  endfacet
  facet normal 0.920428 -0.390913 0
    outer loop
      vertex -6.57486 2.88433 0
      vertex -6.57486 2.88433 1
      vertex -6.82066 2.30559 0
    endloop
  endfacet
  facet normal 0.920428 -0.390913 0
    outer loop
      vertex -6.82066 2.30559 1
      vertex -6.82066 2.30559 0
      vertex -6.57486 2.88433 1
    endloop
  endfacet
  facet normal 0.894231 -0.447606 0
    outer loop
      vertex -6.29981 3.43383 0
      vertex -6.29981 3.43383 1
      vertex -6.57486 2.88433 0
    endloop
  endfacet
  facet normal 0.894231 -0.447606 0
    outer loop
      vertex -6.57486 2.88433 1
      vertex -6.57486 2.88433 0
      vertex -6.29981 3.43383 1
    endloop
  endfacet
  facet normal 0.867131 -0.49808 0
    outer loop
      vertex -6.09498 3.79043 0
      vertex -6.09498 3.79043 1
      vertex -6.29981 3.43383 0
    endloop
  endfacet
  facet normal 0.867131 -0.49808 0
    outer loop
      vertex -6.29981 3.43383 1
      vertex -6.29981 3.43383 0
      vertex -6.09498 3.79043 1
    endloop
  endfacet
  facet normal 0.825018 -0.565106 0
    outer loop
      vertex -5.94282 4.01257 0
      vertex -5.94282 4.01257 1
      vertex -6.09498 3.79043 0
    endloop
  endfacet
  facet normal 0.825018 -0.565106 0
    outer loop
      vertex -6.09498 3.79043 1
      vertex -6.09498 3.79043 0
      vertex -5.94282 4.01257 1
    endloop
  endfacet
  facet normal 0.779173 -0.626808 0
    outer loop
      vertex -5.67947 4.33993 0
      vertex -5.67947 4.33993 1
      vertex -5.94282 4.01257 0
    endloop
  endfacet
  facet normal 0.779173 -0.626808 0
    outer loop
      vertex -5.94282 4.01257 1
      vertex -5.94282 4.01257 0
      vertex -5.67947 4.33993 1
    endloop
  endfacet
  facet normal 0.741593 -0.67085 0
    outer loop
      vertex -5.24056 4.82514 0
      vertex -5.24056 4.82514 1
      vertex -5.67947 4.33993 0
    endloop
  endfacet
  facet normal 0.741593 -0.67085 0
    outer loop
      vertex -5.67947 4.33993 1
      vertex -5.67947 4.33993 0
      vertex -5.24056 4.82514 1
    endloop
  endfacet
  facet normal 0.697708 -0.716383 0
    outer loop
      vertex -4.77238 5.28111 0
      vertex -4.77238 5.28111 1
      vertex -5.24056 4.82514 0
    endloop
  endfacet
  facet normal 0.697708 -0.716383 0
    outer loop
      vertex -5.24056 4.82514 1
      vertex -5.24056 4.82514 0
      vertex -4.77238 5.28111 1
    endloop
  endfacet
  facet normal 0.669364 -0.742935 0
    outer loop
      vertex -4.47391 5.55002 0
      vertex -4.47391 5.55002 1
      vertex -4.77238 5.28111 0
    endloop
  endfacet
  facet normal 0.669364 -0.742935 0
    outer loop
      vertex -4.77238 5.28111 1
      vertex -4.77238 5.28111 0
      vertex -4.47391 5.55002 1
    endloop
  endfacet
  facet normal 0.58875 -0.808315 0
    outer loop
      vertex -4.19301 5.75462 0
      vertex -4.19301 5.75462 1
      vertex -4.47391 5.55002 0
    endloop
  endfacet
  facet normal 0.58875 -0.808315 0
    outer loop
      vertex -4.47391 5.55002 1
      vertex -4.47391 5.55002 0
      vertex -4.19301 5.75462 1
    endloop
  endfacet
  facet normal 0.508628 -0.860987 0
    outer loop
      vertex -3.64875 6.07614 0
      vertex -3.64875 6.07614 1
      vertex -4.19301 5.75462 0
    endloop
  endfacet
  facet normal 0.508628 -0.860987 0
    outer loop
      vertex -4.19301 5.75462 1
      vertex -4.19301 5.75462 0
      vertex -3.64875 6.07614 1
    endloop
  endfacet
  facet normal 0.410524 -0.91185 0
    outer loop
      vertex -2.81773 6.45027 0
      vertex -2.81773 6.45027 1
      vertex -3.64875 6.07614 0
    endloop
  endfacet
  facet normal 0.410524 -0.91185 0
    outer loop
      vertex -3.64875 6.07614 1
      vertex -3.64875 6.07614 0
      vertex -2.81773 6.45027 1
    endloop
  endfacet
  facet normal 0.312091 -0.950052 0
    outer loop
      vertex -1.94575 6.73672 0
      vertex -1.94575 6.73672 1
      vertex -2.81773 6.45027 0
    endloop
  endfacet
  facet normal 0.312091 -0.950052 0
    outer loop
      vertex -2.81773 6.45027 1
      vertex -2.81773 6.45027 0
      vertex -1.94575 6.73672 1
    endloop
  endfacet
  facet normal 0.219492 -0.975614 0
    outer loop
      vertex -1.29615 6.88286 0
      vertex -1.29615 6.88286 1
      vertex -1.94575 6.73672 0
    endloop
  endfacet
  facet normal 0.219492 -0.975614 0
    outer loop
      vertex -1.94575 6.73672 1
      vertex -1.94575 6.73672 0
      vertex -1.29615 6.88286 1
    endloop
  endfacet
  facet normal 0.111184 -0.9938 0
    outer loop
      vertex -0.564623 6.96471 0
      vertex -0.564623 6.96471 1
      vertex -1.29615 6.88286 0
    endloop
  endfacet
  facet normal 0.111184 -0.9938 0
    outer loop
      vertex -1.29615 6.88286 1
      vertex -1.29615 6.88286 0
      vertex -0.564623 6.96471 1
    endloop
  endfacet
  facet normal 0.0467724 -0.998906 0
    outer loop
      vertex -0.19008 6.98224 0
      vertex -0.19008 6.98224 1
      vertex -0.564623 6.96471 0
    endloop
  endfacet
  facet normal 0.0467724 -0.998906 0
    outer loop
      vertex -0.564623 6.96471 1
      vertex -0.564623 6.96471 0
      vertex -0.19008 6.98224 1
    endloop
  endfacet
  facet normal -0.0778028 -0.996969 0
    outer loop
      vertex 0.184462 6.95301 0
      vertex 0.184462 6.95301 1
      vertex -0.19008 6.98224 0
    endloop
  endfacet
  facet normal -0.0778028 -0.996969 -0
    outer loop
      vertex -0.19008 6.98224 1
      vertex -0.19008 6.98224 0
      vertex 0.184462 6.95301 1
    endloop
  endfacet
  facet normal -0.146139 -0.989264 0
    outer loop
      vertex 1.01548 6.83025 0
      vertex 1.01548 6.83025 1
      vertex 0.184462 6.95301 0
    endloop
  endfacet
  facet normal -0.146139 -0.989264 -0
    outer loop
      vertex 0.184462 6.95301 1
      vertex 0.184462 6.95301 0
      vertex 1.01548 6.83025 1
    endloop
  endfacet
  facet normal -0.23337 -0.972388 0
    outer loop
      vertex 1.91672 6.61396 0
      vertex 1.91672 6.61396 1
      vertex 1.01548 6.83025 0
    endloop
  endfacet
  facet normal -0.23337 -0.972388 -0
    outer loop
      vertex 1.01548 6.83025 1
      vertex 1.01548 6.83025 0
      vertex 1.91672 6.61396 1
    endloop
  endfacet
  facet normal -0.375471 -0.926834 0
    outer loop
      vertex 2.97012 6.18721 0
      vertex 2.97012 6.18721 1
      vertex 1.91672 6.61396 0
    endloop
  endfacet
  facet normal -0.375471 -0.926834 -0
    outer loop
      vertex 1.91672 6.61396 1
      vertex 1.91672 6.61396 0
      vertex 2.97012 6.18721 1
    endloop
  endfacet
  facet normal -0.54112 -0.840946 0
    outer loop
      vertex 3.92404 5.5734 0
      vertex 3.92404 5.5734 1
      vertex 2.97012 6.18721 0
    endloop
  endfacet
  facet normal -0.54112 -0.840946 -0
    outer loop
      vertex 2.97012 6.18721 1
      vertex 2.97012 6.18721 0
      vertex 3.92404 5.5734 1
    endloop
  endfacet
  facet normal -0.654036 -0.756463 0
    outer loop
      vertex 4.62045 4.97128 0
      vertex 4.62045 4.97128 1
      vertex 3.92404 5.5734 0
    endloop
  endfacet
  facet normal -0.654036 -0.756463 -0
    outer loop
      vertex 3.92404 5.5734 1
      vertex 3.92404 5.5734 0
      vertex 4.62045 4.97128 1
    endloop
  endfacet
  facet normal -0.722732 -0.691128 0
    outer loop
      vertex 4.995 4.57961 0
      vertex 4.995 4.57961 1
      vertex 4.62045 4.97128 0
    endloop
  endfacet
  facet normal -0.722732 -0.691128 -0
    outer loop
      vertex 4.62045 4.97128 1
      vertex 4.62045 4.97128 0
      vertex 4.995 4.57961 1
    endloop
  endfacet
  facet normal -0.778878 -0.627176 0
    outer loop
      vertex 5.42806 4.0418 0
      vertex 5.42806 4.0418 1
      vertex 4.995 4.57961 0
    endloop
  endfacet
  facet normal -0.778878 -0.627176 -0
    outer loop
      vertex 4.995 4.57961 1
      vertex 4.995 4.57961 0
      vertex 5.42806 4.0418 1
    endloop
  endfacet
  facet normal -0.844456 -0.535624 0
    outer loop
      vertex 5.9138 3.276 0
      vertex 5.9138 3.276 1
      vertex 5.42806 4.0418 0
    endloop
  endfacet
  facet normal -0.844456 -0.535624 -0
    outer loop
      vertex 5.42806 4.0418 1
      vertex 5.42806 4.0418 0
      vertex 5.9138 3.276 1
    endloop
  endfacet
  facet normal -0.909302 -0.416137 0
    outer loop
      vertex 6.28834 2.45758 0
      vertex 6.28834 2.45758 1
      vertex 5.9138 3.276 0
    endloop
  endfacet
  facet normal -0.909302 -0.416137 -0
    outer loop
      vertex 5.9138 3.276 1
      vertex 5.9138 3.276 0
      vertex 6.28834 2.45758 1
    endloop
  endfacet
  facet normal -0.95611 -0.293008 0
    outer loop
      vertex 6.55169 1.59825 0
      vertex 6.55169 1.59825 1
      vertex 6.28834 2.45758 0
    endloop
  endfacet
  facet normal -0.95611 -0.293008 -0
    outer loop
      vertex 6.28834 2.45758 1
      vertex 6.28834 2.45758 0
      vertex 6.55169 1.59825 1
    endloop
  endfacet
  facet normal -0.985467 -0.169869 0
    outer loop
      vertex 6.70385 0.715528 0
      vertex 6.70385 0.715528 1
      vertex 6.55169 1.59825 0
    endloop
  endfacet
  facet normal -0.985467 -0.169869 -0
    outer loop
      vertex 6.55169 1.59825 1
      vertex 6.55169 1.59825 0
      vertex 6.70385 0.715528 1
    endloop
  endfacet
  facet normal -0.99925 -0.0387231 0
    outer loop
      vertex 6.73896 -0.190574 0
      vertex 6.73896 -0.190574 1
      vertex 6.70385 0.715528 0
    endloop
  endfacet
  facet normal -0.99925 -0.0387231 -0
    outer loop
      vertex 6.70385 0.715528 1
      vertex 6.70385 0.715528 0
      vertex 6.73896 -0.190574 1
    endloop
  endfacet
  facet normal -0.995457 0.0952117 0
    outer loop
      vertex 6.65118 -1.10837 0
      vertex 6.65118 -1.10837 1
      vertex 6.73896 -0.190574 0
    endloop
  endfacet
  facet normal -0.995457 0.0952117 0
    outer loop
      vertex 6.73896 -0.190574 1
      vertex 6.73896 -0.190574 0
      vertex 6.65118 -1.10837 1
    endloop
  endfacet
  facet normal -0.979894 0.199519 0
    outer loop
      vertex 6.51072 -1.79817 0
      vertex 6.51072 -1.79817 1
      vertex 6.65118 -1.10837 0
    endloop
  endfacet
  facet normal -0.979894 0.199519 0
    outer loop
      vertex 6.65118 -1.10837 1
      vertex 6.65118 -1.10837 0
      vertex 6.51072 -1.79817 1
    endloop
  endfacet
  facet normal -0.957739 0.287637 0
    outer loop
      vertex 6.38783 -2.20738 0
      vertex 6.38783 -2.20738 1
      vertex 6.51072 -1.79817 0
    endloop
  endfacet
  facet normal -0.957739 0.287637 0
    outer loop
      vertex 6.51072 -1.79817 1
      vertex 6.51072 -1.79817 0
      vertex 6.38783 -2.20738 1
    endloop
  endfacet
  facet normal -0.934981 0.354697 0
    outer loop
      vertex 6.17715 -2.76273 0
      vertex 6.17715 -2.76273 1
      vertex 6.38783 -2.20738 0
    endloop
  endfacet
  facet normal -0.934981 0.354697 0
    outer loop
      vertex 6.38783 -2.20738 1
      vertex 6.38783 -2.20738 0
      vertex 6.17715 -2.76273 1
    endloop
  endfacet
  facet normal -0.897257 0.441509 0
    outer loop
      vertex 5.83772 -3.45254 0
      vertex 5.83772 -3.45254 1
      vertex 6.17715 -2.76273 0
    endloop
  endfacet
  facet normal -0.897257 0.441509 0
    outer loop
      vertex 6.17715 -2.76273 1
      vertex 6.17715 -2.76273 0
      vertex 5.83772 -3.45254 1
    endloop
  endfacet
  facet normal -0.837642 0.546219 0
    outer loop
      vertex 5.42221 -4.08973 0
      vertex 5.42221 -4.08973 1
      vertex 5.83772 -3.45254 0
    endloop
  endfacet
  facet normal -0.837642 0.546219 0
    outer loop
      vertex 5.83772 -3.45254 1
      vertex 5.83772 -3.45254 0
      vertex 5.42221 -4.08973 1
    endloop
  endfacet
  facet normal -0.776726 0.629839 0
    outer loop
      vertex 4.94818 -4.67431 0
      vertex 4.94818 -4.67431 1
      vertex 5.42221 -4.08973 0
    endloop
  endfacet
  facet normal -0.776726 0.629839 0
    outer loop
      vertex 5.42221 -4.08973 1
      vertex 5.42221 -4.08973 0
      vertex 4.94818 -4.67431 1
    endloop
  endfacet
  facet normal -0.698815 0.715303 0
    outer loop
      vertex 4.41563 -5.19459 0
      vertex 4.41563 -5.19459 1
      vertex 4.94818 -4.67431 0
    endloop
  endfacet
  facet normal -0.698815 0.715303 0
    outer loop
      vertex 4.94818 -4.67431 1
      vertex 4.94818 -4.67431 0
      vertex 4.41563 -5.19459 1
    endloop
  endfacet
  facet normal -0.623314 0.781972 0
    outer loop
      vertex 3.83625 -5.65641 0
      vertex 3.83625 -5.65641 1
      vertex 4.41563 -5.19459 0
    endloop
  endfacet
  facet normal -0.623314 0.781972 0
    outer loop
      vertex 4.41563 -5.19459 1
      vertex 4.41563 -5.19459 0
      vertex 3.83625 -5.65641 1
    endloop
  endfacet
  facet normal -0.530293 0.847815 0
    outer loop
      vertex 3.21007 -6.04808 0
      vertex 3.21007 -6.04808 1
      vertex 3.83625 -5.65641 0
    endloop
  endfacet
  facet normal -0.530293 0.847815 0
    outer loop
      vertex 3.83625 -5.65641 1
      vertex 3.83625 -5.65641 0
      vertex 3.21007 -6.04808 1
    endloop
  endfacet
  facet normal -0.443648 0.896201 0
    outer loop
      vertex 2.54876 -6.37545 0
      vertex 2.54876 -6.37545 1
      vertex 3.21007 -6.04808 0
    endloop
  endfacet
  facet normal -0.443648 0.896201 0
    outer loop
      vertex 3.21007 -6.04808 1
      vertex 3.21007 -6.04808 0
      vertex 2.54876 -6.37545 1
    endloop
  endfacet
  facet normal -0.346466 0.938062 0
    outer loop
      vertex 1.85235 -6.63266 0
      vertex 1.85235 -6.63266 1
      vertex 2.54876 -6.37545 0
    endloop
  endfacet
  facet normal -0.346466 0.938062 0
    outer loop
      vertex 2.54876 -6.37545 1
      vertex 2.54876 -6.37545 0
      vertex 1.85235 -6.63266 1
    endloop
  endfacet
  facet normal -0.246019 0.969265 0
    outer loop
      vertex 1.13838 -6.81388 0
      vertex 1.13838 -6.81388 1
      vertex 1.85235 -6.63266 0
    endloop
  endfacet
  facet normal -0.246019 0.969265 0
    outer loop
      vertex 1.85235 -6.63266 1
      vertex 1.85235 -6.63266 0
      vertex 1.13838 -6.81388 1
    endloop
  endfacet
  facet normal -0.148948 0.988845 0
    outer loop
      vertex 0.400995 -6.92495 0
      vertex 0.400995 -6.92495 1
      vertex 1.13838 -6.81388 0
    endloop
  endfacet
  facet normal -0.148948 0.988845 0
    outer loop
      vertex 1.13838 -6.81388 1
      vertex 1.13838 -6.81388 0
      vertex 0.400995 -6.92495 1
    endloop
  endfacet
  facet normal -0.03899 0.99924 0
    outer loop
      vertex -0.348091 -6.95418 0
      vertex -0.348091 -6.95418 1
      vertex 0.400995 -6.92495 0
    endloop
  endfacet
  facet normal -0.03899 0.99924 0
    outer loop
      vertex 0.400995 -6.92495 1
      vertex 0.400995 -6.92495 0
      vertex -0.348091 -6.95418 1
    endloop
  endfacet
  facet normal 0.0700628 0.997543 -0
    outer loop
      vertex -1.09718 -6.90157 0
      vertex -1.09718 -6.90157 1
      vertex -0.348091 -6.95418 0
    endloop
  endfacet
  facet normal 0.0700628 0.997543 0
    outer loop
      vertex -0.348091 -6.95418 1
      vertex -0.348091 -6.95418 0
      vertex -1.09718 -6.90157 1
    endloop
  endfacet
endsolid OpenSCAD_Model
